<?xml version="1.0" standalone="no"?>
<!DOCTYPE svg PUBLIC "-//W3C//DTD SVG 20010904//EN"
 "http://www.w3.org/TR/2001/REC-SVG-20010904/DTD/svg10.dtd">
<svg version="1.0" xmlns="http://www.w3.org/2000/svg"
 width="251.000000pt" height="66.000000pt" viewBox="0 0 251.000000 66.000000"
 preserveAspectRatio="xMidYMid meet">

<g transform="translate(0.000000,66.000000) scale(0.100000,-0.100000)"
fill="#000000" stroke="none">
<path d="M103 539 c-104 -30 -92 -158 22 -239 52 -37 42 -54 -33 -58 l-62 -3
0 -59 0 -60 83 0 c220 0 263 139 83 266 -40 29 -26 44 40 44 l54 0 0 60 0 60
-77 -1 c-43 0 -92 -5 -110 -10z"/>
<path d="M1540 335 l0 -215 55 0 55 0 0 94 c0 65 4 97 13 105 26 21 37 -9 37
-106 l0 -93 60 0 60 0 0 108 c0 82 -4 115 -18 142 -27 54 -71 69 -134 45 -16
-6 -18 0 -18 64 l0 71 -55 0 -55 0 0 -215z"/>
<path d="M1840 335 l0 -215 55 0 55 0 0 54 c0 57 7 70 34 60 12 -5 16 -20 16
-60 l0 -54 60 0 60 0 0 61 c0 55 -3 64 -30 89 -20 19 -27 31 -19 35 12 8 48
83 49 103 0 8 -17 12 -55 12 l-54 0 -20 -45 c-32 -72 -41 -57 -41 65 l0 110
-55 0 -55 0 0 -215z"/>
<path d="M435 428 c-16 -6 -41 -20 -54 -32 -43 -39 -51 -74 -51 -241 l0 -155
55 0 55 0 0 141 c0 149 7 179 43 179 35 0 49 -15 45 -46 -2 -25 -8 -29 -35
-32 l-33 -3 0 -60 0 -59 38 0 c84 0 142 63 142 155 0 69 -26 115 -80 143 -48
24 -78 26 -125 10z"/>
<path d="M756 420 c-106 -32 -136 -180 -53 -256 61 -57 164 -54 230 6 l32 29
-32 32 -31 32 -27 -22 c-50 -38 -115 -16 -115 40 0 22 32 49 58 49 30 0 28
-14 -3 -28 -22 -10 -24 -15 -15 -33 7 -11 17 -18 23 -16 85 34 137 62 137 73
0 24 -75 91 -110 97 -40 8 -57 8 -94 -3z"/>
<path d="M1063 410 c-25 -11 -51 -33 -63 -52 -24 -40 -27 -116 -5 -158 40 -78
148 -99 238 -47 26 15 47 34 47 41 0 7 -12 24 -27 39 -28 26 -28 26 -53 7 -46
-36 -99 -21 -116 32 -8 27 26 58 65 58 27 -1 25 -4 -23 -35 -14 -9 -14 -12 -1
-29 15 -19 17 -19 85 14 39 19 70 40 70 47 0 24 -62 83 -98 93 -51 14 -71 12
-119 -10z"/>
<path d="M1400 408 c-56 -29 -81 -64 -87 -121 -4 -35 0 -54 17 -84 28 -52 68
-74 141 -80 l59 -6 0 57 0 56 -34 0 c-49 0 -66 9 -66 34 0 32 19 46 62 46 l38
0 0 60 0 60 -43 0 c-25 0 -61 -10 -87 -22z"/>
<path d="M2237 416 c-69 -25 -97 -66 -97 -143 0 -87 49 -139 139 -150 l51 -6
0 61 0 61 -32 3 c-29 3 -33 6 -33 33 0 25 4 30 28 33 48 6 57 -11 57 -104 l0
-84 60 0 60 0 0 93 c0 114 -21 160 -90 195 -50 25 -88 27 -143 8z"/>
</g>
</svg>
